<?xml version="1.0" encoding="utf-8"?>
<!-- Generator: Adobe Illustrator 26.0.1, SVG Export Plug-In . SVG Version: 6.00 Build 0)  -->
<svg version="1.1"
	 id="svg1901" xmlns:cc="http://creativecommons.org/ns#" xmlns:dc="http://purl.org/dc/elements/1.1/" xmlns:inkscape="http://www.inkscape.org/namespaces/inkscape" xmlns:ns1="http://sozi.baierouge.fr" xmlns:rdf="http://www.w3.org/1999/02/22-rdf-syntax-ns#" xmlns:sodipodi="http://sodipodi.sourceforge.net/DTD/sodipodi-0.dtd" xmlns:svg="http://www.w3.org/2000/svg"
	 xmlns="http://www.w3.org/2000/svg" xmlns:xlink="http://www.w3.org/1999/xlink" x="0px" y="0px" viewBox="0 0 426.7 746.3"
	 style="enable-background:new 0 0 426.7 746.3;" xml:space="preserve">
<style type="text/css">
	.st0{fill-rule:evenodd;clip-rule:evenodd;fill:#ECECEC;stroke:#000000;stroke-width:10;}
	.st1{fill:#CCCCCC;}
	.st2{fill-rule:evenodd;clip-rule:evenodd;fill:#F276A0;stroke:#000000;}
	.st3{fill-rule:evenodd;clip-rule:evenodd;fill:#FF93A8;stroke:#000000;stroke-width:10;}
	.st4{fill-rule:evenodd;clip-rule:evenodd;fill:#B3B3B3;stroke:#000000;}
	.st5{fill-rule:evenodd;clip-rule:evenodd;fill:#F276A0;}
	.st6{fill-rule:evenodd;clip-rule:evenodd;fill:#999999;}
	.st7{fill-rule:evenodd;clip-rule:evenodd;fill:#CCCCCC;}
	.st8{fill:none;stroke:#000000;stroke-width:10;}
	.st9{fill:#B3B3B3;stroke:#000000;stroke-width:8;stroke-linecap:round;}
	.st10{fill:#80E5FF;stroke:#000000;stroke-width:8.0002;stroke-linecap:round;stroke-miterlimit:2.6032;}
	.st11{fill:#F276A0;stroke:#000000;stroke-width:10;stroke-linecap:round;}
	.st12{fill:#FFFFFF;}
	.st13{fill:none;stroke:#000000;stroke-width:8.0002;stroke-linecap:round;stroke-miterlimit:2.6032;}
	.st14{fill-rule:evenodd;clip-rule:evenodd;fill:#FF93A8;}
	.st15{fill-rule:evenodd;clip-rule:evenodd;fill:#FFFFFF;}
</style>
<sodipodi:namedview  bordercolor="#666666" borderopacity="1.0" gridtolerance="10000" id="base" inkscape:current-layer="layer1" inkscape:cx="1023.2679" inkscape:cy="141.10775" inkscape:document-units="px" inkscape:guide-bbox="true" inkscape:pageopacity="0.0" inkscape:pageshadow="2" inkscape:window-height="938" inkscape:window-width="1280" inkscape:window-x="-4" inkscape:window-y="-4" inkscape:zoom="0.25" pagecolor="#ffffff" showgrid="false" showguides="true">
	</sodipodi:namedview>
<g id="layer1" transform="translate(579.31 268.72)" inkscape:groupmode="layer" inkscape:label="Taso 1">
	<g id="g3243">
		<path id="path3217" sodipodi:nodetypes="cccccc" class="st0" d="M-367.5-263.7c-30.8,24.5-267.5,229.9-88.2,623.2h178.6h0.6
			c179.3-393.3-57.4-598.7-88.2-623.2L-367.5-263.7L-367.5-263.7z"/>
		<path id="path3219" class="st1" d="M-360.1-9.1c-37.3,0-67.6,30.4-67.6,67.7c0,37.3,30.3,67.6,67.6,67.6
			c37.3,0,67.7-30.3,67.7-67.6C-292.5,21.3-322.8-9.1-360.1-9.1z M-360.1-1.1c33,0,59.7,26.7,59.7,59.7s-26.7,59.6-59.7,59.6
			c-33,0-59.6-26.7-59.6-59.6S-393.1-1.1-360.1-1.1z"/>
		<path id="path2419" sodipodi:nodetypes="cccccccc" class="st2" d="M-486.9-102.2l43.4-79.8l60.6-68.7l17.2-13.1l64.6,67.7
			l50.5,81.8l4,17.2l-241.4-1"/>
		<path id="path2408" sodipodi:nodetypes="css" class="st3" d="M-511.1,201.8c0,0-107.1-1.3-42.4,270.7c0,0,6.1-227.2,62.6-199.1"/>
		<path id="path2410" sodipodi:nodetypes="css" class="st3" d="M-220.8,201.8c0,0,107.1-1.3,42.4,270.7c0,0-6.1-227.2-62.6-199.1"/>
		<path id="path2423" class="st4" d="M-481.8,303.8l26.3,55.6l179.8-1l21.2-54.5H-481.8z"/>
		<path id="path3209" sodipodi:nodetypes="cccccccc" class="st5" d="M-196,229.1l-20.2,50.5l-12.1-10.1l-14.1,6.1l19.2-75.8
			l34.3,17.2c0,0,59.6,41.4,13.1,247.5C-148.5,251.3-197,229.1-196,229.1L-196,229.1z"/>
		<path id="path3213" sodipodi:nodetypes="cscccc" class="st5" d="M-556.6,469.5c0,0-10.1-220.4,58.6-221.2
			c7.6-0.1,7.1,24.2,7.1,24.2l-27.3,6.1l-21.2,66.7L-556.6,469.5z"/>
		<path id="path3232" class="st6" d="M-320.4,303.8c4.1,12.2,6.5,29.2,5.3,53.5c0.9,0.3,1.8,0.7,2.7,1.2l36.7-0.2l17.1-43.9
			c-0.7-3.8-1.5-7.1-2.2-10.6H-320.4z"/>
		<path id="path3227" class="st7" d="M-346.5,197.2c-6.8-0.5-11.1,0.6-11.1,0.6l-5.1,77.8c0,0,24.3-4.8,35.8,28.3h59.6
			C-286.6,213.5-326.9,198.6-346.5,197.2L-346.5,197.2z"/>
		<path id="path3241" class="st7" d="M-479,308.4l20,50l28,2l-8-57L-479,308.4z"/>
		<path id="path2382" sodipodi:nodetypes="cccccc" class="st8" d="M-367.5-263.7c-30.8,24.5-267.5,229.9-88.2,623.2h178.6h0.6
			c179.3-393.3-57.4-598.7-88.2-623.2L-367.5-263.7L-367.5-263.7z"/>
		<path id="path2394" class="st8" d="M-486.9-100.2h237.4"/>
		
			<path id="path2400" sodipodi:cx="-296.98486" sodipodi:cy="70.493912" sodipodi:rx="63.63961" sodipodi:ry="63.63961" sodipodi:type="arc" class="st9" d="
			M-302.5,52.6c0.4,35.1-27.7,64-62.8,64.4c-35.1,0.4-64-27.7-64.4-62.8c0-0.5,0-1.1,0-1.6c-0.4-35.1,27.7-64,62.8-64.4
			c35.1-0.4,64,27.7,64.4,62.8C-302.5,51.5-302.5,52-302.5,52.6z"/>
		
			<path id="path2402" sodipodi:cx="-296.98486" sodipodi:cy="70.493912" sodipodi:rx="63.63961" sodipodi:ry="63.63961" sodipodi:type="arc" class="st10" d="
			M-324.7,52.6c0.3,22.9-18,41.6-40.9,41.9c-22.9,0.3-41.6-18-41.9-40.9c0-0.3,0-0.7,0-1c-0.3-22.9,18-41.6,40.9-41.9
			s41.6,18,41.9,40.9C-324.7,51.9-324.7,52.2-324.7,52.6z"/>
		<path id="path2417" class="st8" d="M-478.8,304.9h224.2"/>
		<path id="rect2414" class="st11" d="M-375.2,199.8h18.2v272.7h-18.2V199.8L-375.2,199.8z"/>
		<path id="path2425" sodipodi:nodetypes="cccc" class="st7" d="M-264.7,291.7c0,0,80.8-185.9,16.2-364.7
			c3,317.2-83.8,364.7-83.8,364.7H-264.7z"/>
		<polygon id="rect2429" class="st12" points="-348.6,10 -324.3,34.4 -383.3,93.9 -407.5,69.4 		"/>
		
			<path id="path2431" sodipodi:cx="-296.98486" sodipodi:cy="70.493912" sodipodi:rx="63.63961" sodipodi:ry="63.63961" sodipodi:type="arc" class="st13" d="
			M-324.7,52.6c0.3,22.9-18,41.6-40.9,41.9c-22.9,0.3-41.6-18-41.9-40.9c0-0.3,0-0.7,0-1c-0.3-22.9,18-41.6,40.9-41.9
			s41.6,18,41.9,40.9C-324.7,51.9-324.7,52.2-324.7,52.6z"/>
		<path id="path2437" sodipodi:nodetypes="cccc" class="st14" d="M-273.8-115.4c0,0-31.3-81.8-90.9-125.3
			c54.5,105.1,26.3,125.3,26.3,125.3H-273.8z"/>
		<path id="path3211" sodipodi:nodetypes="css" class="st8" d="M-220.8,201.8c0,0,107.1-1.3,42.4,270.7c0,0-6.1-227.2-62.6-199.1"/>
		<path id="path3215" sodipodi:nodetypes="css" class="st8" d="M-511.1,201.8c0,0-107.1-1.3-42.4,270.7c0,0,6.1-227.2,62.6-199.1"/>
		<path id="path3237" class="st15" d="M-472.8-118.4c0,0,53.5-104.1,98-131.3C-330.3-277-471.7-116.4-472.8-118.4z"/>
		<path id="path3239" sodipodi:nodetypes="ccss" class="st15" d="M-504.3,158.1c-3.2-1.8-22.7-146,25.7-235.7
			c29.9-24,70.5-11.4,68.6-1.4C-426.7,7.3-485.5,168.5-504.3,158.1L-504.3,158.1z"/>
	</g>
</g>
</svg>
