<svg xmlns="http://www.w3.org/2000/svg" viewBox="0 0 287.52 249"><defs><style>.cls-1{fill:#4d4d4f;stroke:#262324;stroke-miterlimit:10;}.cls-2,.cls-3{fill:#f276a0;}.cls-3{fill-rule:evenodd;}</style></defs><g id="Layer_2" data-name="Layer 2"><g id="Logo_2" data-name="Logo 2"><g id="Background"><polygon class="cls-1" points="215.35 0.5 72.17 0.5 0.58 124.5 72.17 248.5 215.35 248.5 286.94 124.5 215.35 0.5"/><path class="cls-2" d="M152.79,89.5a8.88,8.88,0,1,1-8.87-8.87A8.88,8.88,0,0,1,152.79,89.5ZM130.6,147.19a13.32,13.32,0,1,1,13.32,13.31A13.31,13.31,0,0,1,130.6,147.19Z"/><path class="cls-3" d="M108.42,54A17.75,17.75,0,0,0,90.67,71.75v106.5A17.75,17.75,0,0,0,108.42,196h71a17.75,17.75,0,0,0,17.75-17.75V71.75A17.75,17.75,0,0,0,179.42,54Zm53.25,35.5a17.75,17.75,0,1,1-17.75-17.75A17.75,17.75,0,0,1,161.67,89.5Zm-17.75,26.63A31.06,31.06,0,1,0,175,147.19,31.06,31.06,0,0,0,143.92,116.13Z"/></g></g></g></svg>